<svg id="visual" viewBox="0 0 900 600" width="900" height="600" xmlns="http://www.w3.org/2000/svg" xmlns:xlink="http://www.w3.org/1999/xlink" version="1.1"><rect x="0" y="0" width="900" height="600" fill="#111111"></rect><path d="M0 439L25 425C50 411 100 383 150 371.5C200 360 250 365 300 368.8C350 372.7 400 375.3 450 384.7C500 394 550 410 600 413C650 416 700 406 750 394.7C800 383.3 850 370.7 875 364.3L900 358L900 601L875 601C850 601 800 601 750 601C700 601 650 601 600 601C550 601 500 601 450 601C400 601 350 601 300 601C250 601 200 601 150 601C100 601 50 601 25 601L0 601Z" fill="#715DF2" stroke-linecap="round" stroke-linejoin="miter"></path></svg>